<mxfile host="Electron" modified="2023-06-29T19:37:26.597Z" agent="Mozilla/5.0 (Macintosh; Intel Mac OS X 10_15_7) AppleWebKit/537.36 (KHTML, like Gecko) draw.io/21.4.0 Chrome/112.0.5615.204 Electron/24.5.1 Safari/537.36" etag="B5Fr9eeoFkJ_aEXbtTe4" version="21.4.0" type="device">
  <diagram name="Page-1" id="WR1zDgKjOi-djn3yHILa"><mxGraphModel dx="1100" dy="527" grid="1" gridSize="10" guides="1" tooltips="1" connect="1" arrows="1" fold="1" page="0" pageScale="1" pageWidth="850" pageHeight="1100" math="0" shadow="0"><root><mxCell id="0"/><mxCell id="1" parent="0"/><mxCell id="4" value="" style="edgeStyle=orthogonalEdgeStyle;rounded=0;orthogonalLoop=1;jettySize=auto;html=1;" edge="1" parent="1" source="2" target="3"><mxGeometry relative="1" as="geometry"/></mxCell><mxCell id="2" value="Initiate a value to assign each student to their plants" style="rounded=0;whiteSpace=wrap;html=1;" vertex="1" parent="1"><mxGeometry x="360" y="240" width="120" height="60" as="geometry"/></mxCell><mxCell id="6" value="" style="edgeStyle=orthogonalEdgeStyle;rounded=0;orthogonalLoop=1;jettySize=auto;html=1;" edge="1" parent="1" source="3" target="5"><mxGeometry relative="1" as="geometry"/></mxCell><mxCell id="3" value="Find the index of where each student's plants would be located in relation to the window" style="rounded=0;whiteSpace=wrap;html=1;" vertex="1" parent="1"><mxGeometry x="560" y="240" width="120" height="70" as="geometry"/></mxCell><mxCell id="8" value="" style="edgeStyle=orthogonalEdgeStyle;rounded=0;orthogonalLoop=1;jettySize=auto;html=1;" edge="1" parent="1" source="5" target="7"><mxGeometry relative="1" as="geometry"/></mxCell><mxCell id="5" value="Identify if the student's plant is a violet, radish, grass, or a clover." style="rounded=0;whiteSpace=wrap;html=1;" vertex="1" parent="1"><mxGeometry x="760" y="240" width="120" height="60" as="geometry"/></mxCell><mxCell id="7" value="return the plants" style="rounded=0;whiteSpace=wrap;html=1;" vertex="1" parent="1"><mxGeometry x="960" y="240" width="120" height="60" as="geometry"/></mxCell></root></mxGraphModel></diagram>
</mxfile>